Coordinates
version=1
nRows=16
nColumns=22
inDegrees=yes

Units are S.I. units (second, meters, Newtons, ...)
If the header above contains a line with 'inDegrees', this indicates whether rotational values are in degrees (yes) or radians (no).

endheader
time	pelvis_tilt	pelvis_list	pelvis_rotation	pelvis_tx	pelvis_ty	pelvis_tz	hip_flexion_r	hip_adduction_r	hip_rotation_r	knee_angle_r	ankle_angle_r	subtalar_angle_r	hip_flexion_l	hip_adduction_l	hip_rotation_l	knee_angle_l	ankle_angle_l	subtalar_angle_l	lumbar_extension	lumbar_bending	lumbar_rotation
      0.01000000	      0.65077243	      1.88727345	    173.40264281	      0.01697874	      0.94621764	      1.28350695	      1.55412301	      1.93758162	     -9.89384796	     -9.02174257	      9.57037406	     -1.68963241	      4.53916557	     -3.70816000	     -8.63475556	    -15.60096879	     11.03304301	      0.09304595	     -7.99654212	     -0.34302096	     -6.52054155
      0.02000000	      0.65182480	      1.88385464	    173.39942552	      0.01677216	      0.94620767	      1.28351504	      1.54151412	      1.92880907	     -9.89298031	     -9.02288451	      9.57248023	     -1.68903287	      4.53456881	     -3.70336779	     -8.63150263	    -15.61445554	     11.03272879	      0.09316632	     -7.98429726	     -0.33590514	     -6.51760992
      0.03000000	      0.64481944	      1.86555674	    173.40542878	      0.01650984	      0.94619196	      1.28352039	      1.48804256	      1.90708144	     -9.88276817	     -8.96840521	      9.62026958	     -1.66418688	      4.54700507	     -3.68566919	     -8.62697287	    -15.67852787	     11.04868194	      0.09280106	     -7.97875380	     -0.35287633	     -6.50922944
      0.04000000	      0.63523756	      1.85722401	    173.40237145	      0.01618292	      0.94617894	      1.28350872	      1.42911977	      1.89430333	     -9.87481059	     -8.92025684	      9.65631707	     -1.62805888	      4.54792094	     -3.67869381	     -8.62618497	    -15.73920031	     11.07238662	      0.09203272	     -7.97136943	     -0.35765906	     -6.49697787
      0.05000000	      0.62651140	      1.85119295	    173.39390281	      0.01581172	      0.94615867	      1.28348808	      1.36193385	      1.88407502	     -9.86373843	     -8.86068380	      9.68912065	     -1.58623334	      4.55350582	     -3.67562278	     -8.62854733	    -15.81531942	     11.10043530	      0.09266747	     -7.96091711	     -0.36227520	     -6.47825444
      0.06000000	      0.61952375	      1.84980583	    173.38112890	      0.01540864	      0.94613244	      1.28345238	      1.28776118	      1.87997953	     -9.84576946	     -8.79084335	      9.72448722	     -1.53158999	      4.56846822	     -3.68072179	     -8.63676641	    -15.91237598	     11.13780503	      0.09461187	     -7.94810369	     -0.36558195	     -6.45543195
      0.07000000	      0.61979893	      1.85026696	    173.36495874	      0.01499541	      0.94609011	      1.28342669	      1.21686479	      1.87756070	     -9.82383497	     -8.71453568	      9.76184576	     -1.47323399	      4.60175846	     -3.68921636	     -8.64572944	    -16.03132403	     11.17861202	      0.09685958	     -7.93083685	     -0.36538148	     -6.43044088
      0.08000000	      0.62917706	      1.85691637	    173.35002151	      0.01458291	      0.94602737	      1.28340993	      1.15332202	      1.88236033	     -9.79726691	     -8.63685903	      9.80287494	     -1.40834761	      4.65908077	     -3.70702663	     -8.65240278	    -16.17714385	     11.22720576	      0.09807049	     -7.90851112	     -0.36009744	     -6.40581593
      0.09000000	      0.65144907	      1.87176933	    173.34042775	      0.01418615	      0.94593601	      1.28341237	      1.10383201	      1.89682885	     -9.76763687	     -8.56151805	      9.84706450	     -1.33544090	      4.74903551	     -3.73674151	     -8.65138561	    -16.35540838	     11.28701954	      0.09658475	     -7.88061510	     -0.34461606	     -6.38475703
      0.10000000	      0.68832621	      1.89587879	    173.33827416	      0.01381436	      0.94580944	      1.28344556	      1.07411837	      1.92097686	     -9.73983000	     -8.49446899	      9.89264030	     -1.25883780	      4.87494709	     -3.77850911	     -8.63496742	    -16.56676395	     11.35815796	      0.09087303	     -7.84703473	     -0.31725165	     -6.36760826
      0.11000000	      0.73760678	      1.92912450	    173.34569647	      0.01346562	      0.94565181	      1.28351633	      1.06252555	      1.95444577	     -9.71524127	     -8.43775679	      9.93995901	     -1.18353984	      5.03536832	     -3.83105420	     -8.60083166	    -16.81187964	     11.44093037	      0.08036144	     -7.81046478	     -0.27760049	     -6.35311815
      0.12000000	      0.83702617	      1.97812421	    173.36037599	      0.01315025	      0.94540305	      1.28362432	      1.12345304	      2.00603697	     -9.72184197	     -8.41512192	      9.95282586	     -1.08318945	      5.27501869	     -3.90650040	     -8.54096346	    -17.09968507	     11.56417195	      0.05434063	     -7.72577651	     -0.21395717	     -6.31707007
      0.13000000	      0.91249988	      2.02592274	    173.38191645	      0.01283772	      0.94517952	      1.28377187	      1.15504881	      2.05305234	     -9.70503551	     -8.38662652	      9.99891977	     -1.00919217	      5.50101900	     -3.97593584	     -8.47630555	    -17.40524670	     11.67027313	      0.02607930	     -7.67992005	     -0.15302147	     -6.30552091
      0.14000000	      0.94783109	      2.07683524	    173.40347636	      0.01250179	      0.94501182	      1.28394055	      1.13177443	      2.10032557	     -9.66724033	     -8.33878809	     10.07599765	     -0.96147269	      5.68127017	     -4.04148452	     -8.41423119	    -17.70826948	     11.75430197	      0.00914205	     -7.69061372	     -0.09323100	     -6.30419779
      0.15000000	      1.01447787	      2.15245715	    173.43320172	      0.01217415	      0.94478075	      1.28414567	      1.15502070	      2.17422167	     -9.65980109	     -8.31879275	     10.11464235	     -0.90084002	      5.91345733	     -4.13756910	     -8.33539327	    -18.04714851	     11.89981941	     -0.01685537	     -7.67517398	     -0.00026786	     -6.28266899
      0.16000000	      1.13846566	      2.21236407	    173.46053334	      0.01185894	      0.94445804	      1.28438805	      1.26897071	      2.23124063	     -9.67228144	     -8.34529666	     10.11334640	     -0.81333937	      6.21493099	     -4.21690454	     -8.23107502	    -18.39282416	     12.04045227	     -0.08046526	     -7.59643216	      0.08126010	     -6.24266736
